ply
format ascii 1.0
comment Created by Blender 2.53 (sub 0) - www.blender.org, source file: 2.blend
element vertex 81
property float x
property float y
property float z
property float nx
property float ny
property float nz
element face 128
property list uchar uint vertex_indices
end_header
1.000000 -0.750000 0.000000 0.000000 0.000000 1.000000 
0.750000 -0.750000 0.000000 0.000000 0.000000 1.000000 
0.750000 -1.000000 0.000000 0.000000 0.000000 1.000000 
1.000000 -1.000000 0.000000 0.000000 -0.000000 1.000000 
0.500000 -0.750000 0.000000 -0.000000 0.000000 1.000000 
0.500000 -1.000000 0.000000 -0.000000 0.000000 1.000000 
1.000000 -0.500000 0.000000 -0.000000 0.000000 1.000000 
0.750000 -0.500000 0.000000 -0.000000 0.000000 1.000000 
0.500000 -0.500000 0.000000 -0.000000 0.000000 1.000000 
0.250000 -0.750000 0.000000 -0.000000 0.000000 1.000000 
0.250000 -1.000000 0.000000 -0.000000 0.000000 1.000000 
0.000000 -0.750000 0.000000 0.000000 0.000000 1.000000 
0.000000 -1.000000 0.000000 0.000000 0.000000 1.000000 
0.250000 -0.500000 0.000000 -0.000000 0.000000 1.000000 
0.000000 -0.500000 0.000000 -0.000000 0.000000 1.000000 
1.000000 -0.250000 0.000000 -0.000000 0.000000 1.000000 
0.750000 -0.250000 0.000000 -0.000000 0.000000 1.000000 
0.500000 -0.250000 0.000000 -0.000000 0.000000 1.000000 
1.000000 -0.000000 0.000000 -0.000000 0.000000 1.000000 
0.750000 -0.000000 0.000000 -0.000000 0.000000 1.000000 
0.500000 0.000000 0.000000 -0.000000 0.000000 1.000000 
0.250000 -0.250000 0.000000 -0.000000 0.000000 1.000000 
0.000000 -0.250000 0.000000 -0.000000 0.000000 1.000000 
0.250000 0.000000 0.000000 -0.000000 0.000000 1.000000 
0.000000 0.000000 0.000000 -0.000000 0.000000 1.000000 
-0.250000 -0.750000 0.000000 0.000000 0.000000 1.000000 
-0.250000 -1.000000 0.000000 0.000000 0.000000 1.000000 
-0.500000 -0.750000 0.000000 0.000000 0.000000 1.000000 
-0.500000 -1.000000 0.000000 0.000000 0.000000 1.000000 
-0.250000 -0.500000 0.000000 -0.000000 0.000000 1.000000 
-0.500000 -0.500000 0.000000 -0.000000 0.000000 1.000000 
-0.750000 -0.750000 0.000000 -0.000000 0.000000 1.000000 
-0.750000 -1.000000 0.000000 -0.000000 0.000000 1.000000 
-1.000000 -0.750000 0.000000 -0.000000 0.000000 1.000000 
-1.000000 -1.000000 0.000000 -0.000000 0.000000 1.000000 
-0.750000 -0.500000 0.000000 -0.000000 0.000000 1.000000 
-1.000000 -0.500000 0.000000 -0.000000 0.000000 1.000000 
-0.250000 -0.250000 0.000000 -0.000000 0.000000 1.000000 
-0.500000 -0.250000 0.000000 -0.000000 0.000000 1.000000 
-0.250000 0.000000 0.000000 -0.000000 0.000000 1.000000 
-0.500000 0.000000 0.000000 -0.000000 0.000000 1.000000 
-0.750000 -0.250000 0.000000 -0.000000 0.000000 1.000000 
-1.000000 -0.250000 0.000000 -0.000000 0.000000 1.000000 
-0.750000 0.000000 0.000000 -0.000000 0.000000 1.000000 
-1.000000 0.000000 0.000000 -0.000000 0.000000 1.000000 
1.000000 0.250000 0.000000 -0.000000 0.000000 1.000000 
0.750000 0.250000 0.000000 -0.000000 0.000000 1.000000 
0.500000 0.250000 0.000000 -0.000000 0.000000 1.000000 
1.000000 0.500000 0.000000 -0.000000 0.000000 1.000000 
0.750000 0.500000 0.000000 -0.000000 0.000000 1.000000 
0.500000 0.500000 0.000000 -0.000000 0.000000 1.000000 
0.250000 0.250000 0.000000 -0.000000 0.000000 1.000000 
0.000000 0.250000 0.000000 -0.000000 0.000000 1.000000 
0.250000 0.500000 0.000000 -0.000000 0.000000 1.000000 
0.000000 0.500000 0.000000 -0.000000 0.000000 1.000000 
1.000000 0.750000 0.000000 -0.000000 0.000000 1.000000 
0.750000 0.750000 0.000000 -0.000000 0.000000 1.000000 
0.500000 0.750000 0.000000 0.000000 0.000000 1.000000 
1.000000 1.000000 0.000000 -0.000000 0.000000 1.000000 
0.750000 1.000000 0.000000 -0.000000 0.000000 1.000000 
0.500000 1.000000 0.000000 0.000000 0.000000 1.000000 
0.250000 0.750000 0.000000 -0.000000 0.000000 1.000000 
0.000000 0.750000 0.000000 -0.000000 0.000000 1.000000 
0.250000 1.000000 0.000000 0.000000 0.000000 1.000000 
0.000000 1.000000 0.000000 -0.000000 0.000000 1.000000 
-0.250000 0.250000 0.000000 -0.000000 0.000000 1.000000 
-0.500000 0.250000 0.000000 -0.000000 0.000000 1.000000 
-0.250000 0.500000 0.000000 -0.000000 0.000000 1.000000 
-0.500000 0.500000 0.000000 -0.000000 0.000000 1.000000 
-0.750000 0.250000 0.000000 -0.000000 0.000000 1.000000 
-1.000000 0.250000 0.000000 -0.000000 0.000000 1.000000 
-0.750000 0.500000 0.000000 0.000000 -0.000000 1.000000 
-1.000000 0.500000 0.000000 -0.000000 0.000000 1.000000 
-0.250000 0.750000 0.000000 -0.000000 0.000000 1.000000 
-0.500000 0.750000 0.000000 -0.000000 0.000000 1.000000 
-0.250000 1.000000 0.000000 -0.000000 0.000000 1.000000 
-0.500000 1.000000 0.000000 0.000000 0.000000 1.000000 
-0.750000 0.750000 0.000000 -0.000000 0.000000 1.000000 
-1.000000 0.750000 0.000000 -0.000000 0.000000 1.000000 
-0.750000 1.000000 0.000000 0.000000 0.000000 1.000000 
-1.000000 1.000000 0.000000 -0.000000 0.000000 1.000000 
3 0 1 2
3 0 2 3
3 1 4 5
3 1 5 2
3 6 7 1
3 6 1 0
3 7 8 4
3 7 4 1
3 4 9 10
3 4 10 5
3 9 11 12
3 9 12 10
3 8 13 9
3 8 9 4
3 13 14 11
3 13 11 9
3 15 16 7
3 15 7 6
3 16 17 8
3 16 8 7
3 18 19 16
3 18 16 15
3 19 20 17
3 19 17 16
3 17 21 13
3 17 13 8
3 21 22 14
3 21 14 13
3 20 23 21
3 20 21 17
3 23 24 22
3 23 22 21
3 11 25 26
3 11 26 12
3 25 27 28
3 25 28 26
3 14 29 25
3 14 25 11
3 29 30 27
3 29 27 25
3 27 31 32
3 27 32 28
3 31 33 34
3 31 34 32
3 30 35 31
3 30 31 27
3 35 36 33
3 35 33 31
3 22 37 29
3 22 29 14
3 37 38 30
3 37 30 29
3 24 39 37
3 24 37 22
3 39 40 38
3 39 38 37
3 38 41 35
3 38 35 30
3 41 42 36
3 41 36 35
3 40 43 41
3 40 41 38
3 43 44 42
3 43 42 41
3 45 46 19
3 45 19 18
3 46 47 20
3 46 20 19
3 48 49 46
3 48 46 45
3 49 50 47
3 49 47 46
3 47 51 23
3 47 23 20
3 51 52 24
3 51 24 23
3 50 53 51
3 50 51 47
3 53 54 52
3 53 52 51
3 55 56 49
3 55 49 48
3 56 57 50
3 56 50 49
3 58 59 56
3 58 56 55
3 59 60 57
3 59 57 56
3 57 61 53
3 57 53 50
3 61 62 54
3 61 54 53
3 60 63 61
3 60 61 57
3 63 64 62
3 63 62 61
3 52 65 39
3 52 39 24
3 65 66 40
3 65 40 39
3 54 67 65
3 54 65 52
3 67 68 66
3 67 66 65
3 66 69 43
3 66 43 40
3 69 70 44
3 69 44 43
3 68 71 66
3 71 69 66
3 71 72 70
3 71 70 69
3 62 73 67
3 62 67 54
3 73 74 68
3 73 68 67
3 64 75 73
3 64 73 62
3 75 76 74
3 75 74 73
3 74 77 71
3 74 71 68
3 77 78 72
3 77 72 71
3 76 79 77
3 76 77 74
3 79 80 78
3 79 78 77
